<svg width="38" height="39" viewBox="0 0 38 39" fill="none" xmlns="http://www.w3.org/2000/svg">
<rect width="38" height="39" rx="10" fill="#C9C9C9" fill-opacity="0.34"/>
<path d="M20.8692 26.3235C21.0577 26.137 21.1644 25.8832 21.1659 25.6181C21.1673 25.3529 21.0634 25.098 20.877 24.9095L15.9543 19.9323L20.9315 15.0096C21.1147 14.822 21.2169 14.57 21.2161 14.3078C21.2152 14.0456 21.1114 13.7942 20.9271 13.6078C20.7427 13.4213 20.4924 13.3148 20.2303 13.3111C19.9681 13.3073 19.7149 13.4068 19.5253 13.5879L13.8372 19.2136C13.6487 19.4001 13.542 19.6538 13.5406 19.919C13.5391 20.1842 13.643 20.439 13.8295 20.6276L19.4552 26.3157C19.6417 26.5042 19.8954 26.6109 20.1606 26.6123C20.4258 26.6138 20.6806 26.5099 20.8692 26.3235Z" fill="white"/>
</svg>
