<svg width="18" height="18" viewBox="0 0 18 18" fill="none" xmlns="http://www.w3.org/2000/svg">
<path d="M15.1877 9.42742V8.5668L16.2677 7.6218C16.4668 7.44633 16.5974 7.20613 16.6365 6.94365C16.6757 6.68117 16.6207 6.41332 16.4815 6.18742L15.154 3.93742C15.0553 3.76657 14.9135 3.62466 14.7427 3.52593C14.5719 3.4272 14.3781 3.37513 14.1808 3.37492C14.0586 3.37399 13.937 3.39299 13.8208 3.43117L12.454 3.89242C12.2183 3.73509 11.9721 3.59413 11.7171 3.47055L11.4302 2.05305C11.3788 1.79408 11.2379 1.56145 11.0322 1.39588C10.8265 1.23032 10.5692 1.14236 10.3052 1.14742H7.6727C7.40872 1.14236 7.15137 1.23032 6.9457 1.39588C6.74003 1.56145 6.59914 1.79408 6.5477 2.05305L6.26083 3.47055C6.00431 3.59467 5.75627 3.7356 5.51833 3.89242L4.17958 3.40867C4.06218 3.37809 3.94061 3.36669 3.81958 3.37492C3.6223 3.37513 3.42853 3.4272 3.25773 3.52593C3.08693 3.62466 2.94509 3.76657 2.84645 3.93742L1.51895 6.18742C1.38766 6.41298 1.33887 6.67717 1.38094 6.93474C1.42302 7.19231 1.55333 7.42724 1.74958 7.5993L2.8127 8.57242V9.43305L1.74958 10.378C1.54779 10.5513 1.41391 10.7904 1.37169 11.053C1.32947 11.3156 1.38164 11.5847 1.51895 11.8124L2.84645 14.0624C2.94509 14.2333 3.08693 14.3752 3.25773 14.4739C3.42853 14.5726 3.6223 14.6247 3.81958 14.6249C3.94184 14.6259 4.06343 14.6069 4.17958 14.5687L5.54645 14.1074C5.78213 14.2648 6.02833 14.4057 6.28333 14.5293L6.5702 15.9468C6.62164 16.2058 6.76253 16.4384 6.9682 16.604C7.17387 16.7695 7.43122 16.8575 7.6952 16.8524H10.3502C10.6142 16.8575 10.8715 16.7695 11.0772 16.604C11.2829 16.4384 11.4238 16.2058 11.4752 15.9468L11.7621 14.5293C12.0186 14.4052 12.2666 14.2642 12.5046 14.1074L13.8658 14.5687C13.982 14.6069 14.1036 14.6259 14.2258 14.6249C14.4231 14.6247 14.6169 14.5726 14.7877 14.4739C14.9585 14.3752 15.1003 14.2333 15.199 14.0624L16.4815 11.8124C16.6127 11.5869 16.6615 11.3227 16.6195 11.0651C16.5774 10.8075 16.4471 10.5726 16.2508 10.4005L15.1877 9.42742ZM14.1808 13.4999L12.2515 12.8474C11.7995 13.2296 11.2834 13.5286 10.7271 13.7305L10.3277 15.7499H7.6727L7.27333 13.753C6.72137 13.5454 6.20804 13.2469 5.75458 12.8699L3.81958 13.4999L2.49208 11.2499L4.02208 9.89992C3.91807 9.31766 3.91807 8.72156 4.02208 8.1393L2.49208 6.74992L3.81958 4.49992L5.74895 5.15242C6.20088 4.77025 6.717 4.47125 7.27333 4.2693L7.6727 2.24992H10.3277L10.7271 4.2468C11.279 4.45442 11.7924 4.75291 12.2458 5.12992L14.1808 4.49992L15.5083 6.74992L13.9783 8.09992C14.0823 8.68219 14.0823 9.27828 13.9783 9.86055L15.5083 11.2499L14.1808 13.4999Z" fill="black"/>
<path d="M9 12.375C8.33249 12.375 7.67997 12.1771 7.12495 11.8062C6.56994 11.4354 6.13735 10.9083 5.88191 10.2916C5.62646 9.67486 5.55963 8.99626 5.68985 8.34157C5.82008 7.68689 6.14151 7.08552 6.61352 6.61352C7.08552 6.14151 7.68689 5.82008 8.34157 5.68985C8.99626 5.55963 9.67486 5.62646 10.2916 5.88191C10.9083 6.13735 11.4354 6.56994 11.8062 7.12495C12.1771 7.67997 12.375 8.33249 12.375 9C12.3795 9.44447 12.2953 9.88537 12.1273 10.2969C11.9593 10.7084 11.7108 11.0822 11.3965 11.3965C11.0822 11.7108 10.7084 11.9593 10.2969 12.1273C9.88537 12.2953 9.44447 12.3795 9 12.375ZM9 6.75C8.70263 6.74307 8.40695 6.79654 8.13084 6.90716C7.85472 7.01778 7.60391 7.18326 7.39359 7.39359C7.18326 7.60391 7.01778 7.85472 6.90716 8.13084C6.79654 8.40695 6.74307 8.70263 6.75 9C6.74307 9.29737 6.79654 9.59305 6.90716 9.86917C7.01778 10.1453 7.18326 10.3961 7.39359 10.6064C7.60391 10.8167 7.85472 10.9822 8.13084 11.0928C8.40695 11.2035 8.70263 11.2569 9 11.25C9.29737 11.2569 9.59305 11.2035 9.86917 11.0928C10.1453 10.9822 10.3961 10.8167 10.6064 10.6064C10.8167 10.3961 10.9822 10.1453 11.0928 9.86917C11.2035 9.59305 11.2569 9.29737 11.25 9C11.2569 8.70263 11.2035 8.40695 11.0928 8.13084C10.9822 7.85472 10.8167 7.60391 10.6064 7.39359C10.3961 7.18326 10.1453 7.01778 9.86917 6.90716C9.59305 6.79654 9.29737 6.74307 9 6.75Z" fill="black"/>
</svg>
