<svg width="22" height="21" viewBox="0 0 22 21" fill="none" xmlns="http://www.w3.org/2000/svg">
<path fill-rule="evenodd" clip-rule="evenodd" d="M18.4994 0.214355C19.3519 0.214355 20.1695 0.553003 20.7723 1.1558C21.3751 1.75859 21.7137 2.57616 21.7137 3.42864V14.1429C21.7137 14.9954 21.3751 15.813 20.7723 16.4158C20.1695 17.0186 19.3519 17.3572 18.4994 17.3572H5.99908L2.42801 20.0358C1.54516 20.6979 0.285156 20.0679 0.285156 18.9644V3.42864C0.285156 2.57616 0.623803 1.75859 1.2266 1.1558C1.82939 0.553003 2.64696 0.214355 3.49944 0.214355H18.4994ZM9.92801 9.85721H6.71373C6.42957 9.85721 6.15704 9.9701 5.95611 10.171C5.75518 10.372 5.6423 10.6445 5.6423 10.9286C5.6423 11.2128 5.75518 11.4853 5.95611 11.6863C6.15704 11.8872 6.42957 12.0001 6.71373 12.0001H9.92801C10.2122 12.0001 10.4847 11.8872 10.6856 11.6863C10.8866 11.4853 10.9994 11.2128 10.9994 10.9286C10.9994 10.6445 10.8866 10.372 10.6856 10.171C10.4847 9.9701 10.2122 9.85721 9.92801 9.85721ZM15.2852 5.5715H6.71373C6.44064 5.5718 6.17798 5.67637 5.9794 5.86384C5.78083 6.0513 5.66133 6.30752 5.64533 6.58014C5.62932 6.85275 5.71802 7.12119 5.8933 7.33061C6.06857 7.54002 6.3172 7.6746 6.58837 7.70686L6.71373 7.71436H15.2852C15.5582 7.71405 15.8209 7.60949 16.0195 7.42202C16.2181 7.23455 16.3375 6.97833 16.3536 6.70572C16.3696 6.4331 16.2809 6.16466 16.1056 5.95525C15.9303 5.74584 15.6817 5.61125 15.4105 5.579L15.2852 5.5715Z" fill="black"/>
</svg>
