<svg width="15" height="15" viewBox="0 0 15 15" fill="none" xmlns="http://www.w3.org/2000/svg">
<path d="M7.50033 0.416504C11.4124 0.416504 14.5837 3.58771 14.5837 7.49984C14.5837 11.412 11.4124 14.5832 7.50033 14.5832C3.5882 14.5832 0.416992 11.412 0.416992 7.49984C0.416992 3.58771 3.5882 0.416504 7.50033 0.416504ZM7.50033 3.24984C7.31246 3.24984 7.1323 3.32447 6.99946 3.4573C6.86662 3.59014 6.79199 3.77031 6.79199 3.95817V7.49984C6.79203 7.68768 6.86669 7.86782 6.99953 8.00063L9.12453 10.1256C9.25813 10.2547 9.43705 10.3261 9.62278 10.3244C9.8085 10.3228 9.98616 10.2483 10.1175 10.117C10.2488 9.98567 10.3233 9.80801 10.3249 9.62229C10.3265 9.43656 10.2551 9.25764 10.1261 9.12405L8.20866 7.20659V3.95817C8.20866 3.77031 8.13403 3.59014 8.00119 3.4573C7.86835 3.32447 7.68819 3.24984 7.50033 3.24984Z" fill="#33A3E8"/>
</svg>
