<svg width="17" height="17" viewBox="0 0 17 17" fill="none" xmlns="http://www.w3.org/2000/svg">
<path d="M5.48961 1.771C5.48961 1.6301 5.43364 1.49497 5.33402 1.39535C5.23439 1.29572 5.09926 1.23975 4.95836 1.23975C4.81747 1.23975 4.68234 1.29572 4.58271 1.39535C4.48309 1.49497 4.42711 1.6301 4.42711 1.771V2.89016C3.40711 2.97162 2.73845 3.17137 2.24686 3.66366C1.75457 4.15525 1.55482 4.82462 1.47266 5.84391H15.5274C15.4452 4.82391 15.2455 4.15525 14.7532 3.66366C14.2616 3.17137 13.5922 2.97162 12.5729 2.88945V1.771C12.5729 1.6301 12.517 1.49497 12.4173 1.39535C12.3177 1.29572 12.1826 1.23975 12.0417 1.23975C11.9008 1.23975 11.7657 1.29572 11.666 1.39535C11.5664 1.49497 11.5104 1.6301 11.5104 1.771V2.8427C11.0394 2.8335 10.511 2.8335 9.9167 2.8335H7.08336C6.48907 2.8335 5.96066 2.8335 5.48961 2.8427V1.771Z" fill="#33A3E8"/>
<path fill-rule="evenodd" clip-rule="evenodd" d="M1.41602 8.5C1.41602 7.90571 1.41602 7.37729 1.42522 6.90625H15.5735C15.5827 7.37729 15.5827 7.90571 15.5827 8.5V9.91667C15.5827 12.5878 15.5827 13.9237 14.7525 14.7532C13.9223 15.5826 12.5871 15.5833 9.91602 15.5833H7.08268C4.41156 15.5833 3.07564 15.5833 2.24618 14.7532C1.41672 13.923 1.41602 12.5878 1.41602 9.91667V8.5ZM12.041 9.91667C12.2289 9.91667 12.409 9.84204 12.5419 9.7092C12.6747 9.57636 12.7493 9.39619 12.7493 9.20833C12.7493 9.02047 12.6747 8.8403 12.5419 8.70747C12.409 8.57463 12.2289 8.5 12.041 8.5C11.8532 8.5 11.673 8.57463 11.5401 8.70747C11.4073 8.8403 11.3327 9.02047 11.3327 9.20833C11.3327 9.39619 11.4073 9.57636 11.5401 9.7092C11.673 9.84204 11.8532 9.91667 12.041 9.91667ZM12.041 12.75C12.2289 12.75 12.409 12.6754 12.5419 12.5425C12.6747 12.4097 12.7493 12.2295 12.7493 12.0417C12.7493 11.8538 12.6747 11.6736 12.5419 11.5408C12.409 11.408 12.2289 11.3333 12.041 11.3333C11.8532 11.3333 11.673 11.408 11.5401 11.5408C11.4073 11.6736 11.3327 11.8538 11.3327 12.0417C11.3327 12.2295 11.4073 12.4097 11.5401 12.5425C11.673 12.6754 11.8532 12.75 12.041 12.75ZM9.20768 9.20833C9.20768 9.39619 9.13305 9.57636 9.00022 9.7092C8.86738 9.84204 8.68721 9.91667 8.49935 9.91667C8.31149 9.91667 8.13132 9.84204 7.99848 9.7092C7.86564 9.57636 7.79102 9.39619 7.79102 9.20833C7.79102 9.02047 7.86564 8.8403 7.99848 8.70747C8.13132 8.57463 8.31149 8.5 8.49935 8.5C8.68721 8.5 8.86738 8.57463 9.00022 8.70747C9.13305 8.8403 9.20768 9.02047 9.20768 9.20833ZM9.20768 12.0417C9.20768 12.2295 9.13305 12.4097 9.00022 12.5425C8.86738 12.6754 8.68721 12.75 8.49935 12.75C8.31149 12.75 8.13132 12.6754 7.99848 12.5425C7.86564 12.4097 7.79102 12.2295 7.79102 12.0417C7.79102 11.8538 7.86564 11.6736 7.99848 11.5408C8.13132 11.408 8.31149 11.3333 8.49935 11.3333C8.68721 11.3333 8.86738 11.408 9.00022 11.5408C9.13305 11.6736 9.20768 11.8538 9.20768 12.0417ZM4.95768 9.91667C5.14554 9.91667 5.32571 9.84204 5.45855 9.7092C5.59139 9.57636 5.66602 9.39619 5.66602 9.20833C5.66602 9.02047 5.59139 8.8403 5.45855 8.70747C5.32571 8.57463 5.14554 8.5 4.95768 8.5C4.76982 8.5 4.58965 8.57463 4.45682 8.70747C4.32398 8.8403 4.24935 9.02047 4.24935 9.20833C4.24935 9.39619 4.32398 9.57636 4.45682 9.7092C4.58965 9.84204 4.76982 9.91667 4.95768 9.91667ZM4.95768 12.75C5.14554 12.75 5.32571 12.6754 5.45855 12.5425C5.59139 12.4097 5.66602 12.2295 5.66602 12.0417C5.66602 11.8538 5.59139 11.6736 5.45855 11.5408C5.32571 11.408 5.14554 11.3333 4.95768 11.3333C4.76982 11.3333 4.58965 11.408 4.45682 11.5408C4.32398 11.6736 4.24935 11.8538 4.24935 12.0417C4.24935 12.2295 4.32398 12.4097 4.45682 12.5425C4.58965 12.6754 4.76982 12.75 4.95768 12.75Z" fill="#33A3E8"/>
</svg>
