<svg width="15" height="15" viewBox="0 0 15 15" fill="none" xmlns="http://www.w3.org/2000/svg">
<path d="M7.49935 0.416504C11.4115 0.416504 14.5827 3.58771 14.5827 7.49984C14.5827 11.412 11.4115 14.5832 7.49935 14.5832C3.58722 14.5832 0.416016 11.412 0.416016 7.49984C0.416016 3.58771 3.58722 0.416504 7.49935 0.416504ZM7.49935 3.24984C7.31149 3.24984 7.13132 3.32447 6.99848 3.4573C6.86564 3.59014 6.79102 3.77031 6.79102 3.95817V7.49984C6.79106 7.68768 6.86571 7.86782 6.99856 8.00063L9.12356 10.1256C9.25715 10.2547 9.43608 10.3261 9.6218 10.3244C9.80752 10.3228 9.98518 10.2483 10.1165 10.117C10.2478 9.98567 10.3223 9.80801 10.324 9.62229C10.3256 9.43656 10.2542 9.25764 10.1251 9.12405L8.20768 7.20659V3.95817C8.20768 3.77031 8.13305 3.59014 8.00022 3.4573C7.86738 3.32447 7.68721 3.24984 7.49935 3.24984Z" fill="#33A3E8"/>
</svg>
