<svg width="15" height="15" viewBox="0 0 15 15" fill="none" xmlns="http://www.w3.org/2000/svg">
<g clip-path="url(#clip0_54_275)">
<path fill-rule="evenodd" clip-rule="evenodd" d="M3 1C2.73478 1 2.48043 1.10536 2.29289 1.29289C2.10536 1.48043 2 1.73478 2 2V13C2 13.2652 2.10536 13.5196 2.29289 13.7071C2.48043 13.8946 2.73478 14 3 14H10.5C10.6326 14 10.7598 13.9473 10.8536 13.8536C10.9473 13.7598 11 13.6326 11 13.5C11 13.3674 10.9473 13.2402 10.8536 13.1464C10.7598 13.0527 10.6326 13 10.5 13H3V2H10.5C10.6326 2 10.7598 1.94732 10.8536 1.85355C10.9473 1.75979 11 1.63261 11 1.5C11 1.36739 10.9473 1.24021 10.8536 1.14645C10.7598 1.05268 10.6326 1 10.5 1H3ZM12.604 4.896C12.5101 4.80211 12.3828 4.74937 12.25 4.74937C12.1172 4.74937 11.9899 4.80211 11.896 4.896C11.8021 4.98989 11.7494 5.11722 11.7494 5.25C11.7494 5.38278 11.8021 5.51011 11.896 5.604L13.293 7H6.5C6.36739 7 6.24021 7.05268 6.14645 7.14645C6.05268 7.24021 6 7.36739 6 7.5C6 7.63261 6.05268 7.75979 6.14645 7.85355C6.24021 7.94732 6.36739 8 6.5 8H13.293L11.896 9.396C11.8021 9.48989 11.7494 9.61722 11.7494 9.75C11.7494 9.88278 11.8021 10.0101 11.896 10.104C11.9899 10.1979 12.1172 10.2506 12.25 10.2506C12.3828 10.2506 12.5101 10.1979 12.604 10.104L14.854 7.854C14.9006 7.80755 14.9375 7.75238 14.9627 7.69163C14.9879 7.63089 15.0009 7.56577 15.0009 7.5C15.0009 7.43423 14.9879 7.36911 14.9627 7.30837C14.9375 7.24762 14.9006 7.19245 14.854 7.146L12.604 4.896Z" fill="black"/>
</g>
<defs>
<clipPath id="clip0_54_275">
<rect width="15" height="15" fill="white"/>
</clipPath>
</defs>
</svg>
