<svg width="17" height="16" viewBox="0 0 17 16" fill="none" xmlns="http://www.w3.org/2000/svg">
<path d="M16.6667 13.4425C16.6667 13.6083 16.6008 13.7673 16.4836 13.8845C16.3664 14.0017 16.2074 14.0675 16.0417 14.0675H11.7917C11.6525 14.5866 11.3459 15.0452 10.9195 15.3724C10.4931 15.6995 9.97074 15.8768 9.43333 15.8768C8.89593 15.8768 8.37354 15.6995 7.94715 15.3724C7.52076 15.0452 7.2142 14.5866 7.075 14.0675H0.625C0.45924 14.0675 0.300268 14.0017 0.183058 13.8845C0.0658479 13.7673 0 13.6083 0 13.4425C0 13.2768 0.0658479 13.1178 0.183058 13.0006C0.300268 12.8834 0.45924 12.8175 0.625 12.8175H7.075C7.2142 12.2985 7.52076 11.8398 7.94715 11.5127C8.37354 11.1856 8.89593 11.0083 9.43333 11.0083C9.97074 11.0083 10.4931 11.1856 10.9195 11.5127C11.3459 11.8398 11.6525 12.2985 11.7917 12.8175H16.0417C16.2074 12.8175 16.3664 12.8834 16.4836 13.0006C16.6008 13.1178 16.6667 13.2768 16.6667 13.4425ZM16.6667 2.43421C16.6667 2.59997 16.6008 2.75894 16.4836 2.87615C16.3664 2.99336 16.2074 3.05921 16.0417 3.05921H14C13.8608 3.57827 13.5542 4.03691 13.1279 4.36402C12.7015 4.69112 12.1791 4.86842 11.6417 4.86842C11.1043 4.86842 10.5819 4.69112 10.1555 4.36402C9.72909 4.03691 9.42253 3.57827 9.28333 3.05921H0.625C0.542924 3.05921 0.461651 3.04305 0.385823 3.01164C0.309994 2.98023 0.241095 2.93419 0.183058 2.87615C0.125022 2.81812 0.0789844 2.74922 0.0475752 2.67339C0.016166 2.59756 0 2.51629 0 2.43421C0 2.35213 0.016166 2.27086 0.0475752 2.19503C0.0789844 2.11921 0.125022 2.05031 0.183058 1.99227C0.241095 1.93423 0.309994 1.8882 0.385823 1.85679C0.461651 1.82538 0.542924 1.80921 0.625 1.80921H9.28333C9.42253 1.29015 9.72909 0.831508 10.1555 0.504403C10.5819 0.177297 11.1043 0 11.6417 0C12.1791 0 12.7015 0.177297 13.1279 0.504403C13.5542 0.831508 13.8608 1.29015 14 1.80921H16.0417C16.1241 1.80809 16.2058 1.82349 16.2822 1.8545C16.3585 1.88551 16.4278 1.93151 16.4861 1.98977C16.5444 2.04803 16.5904 2.11738 16.6214 2.19371C16.6524 2.27005 16.6678 2.35182 16.6667 2.43421ZM16.6667 7.93421C16.6678 8.0166 16.6524 8.09837 16.6214 8.17471C16.5904 8.25104 16.5444 8.32039 16.4861 8.37865C16.4278 8.43691 16.3585 8.48291 16.2822 8.51392C16.2058 8.54493 16.1241 8.56033 16.0417 8.55921H6.29167C6.15246 9.07827 5.8459 9.53691 5.41952 9.86402C4.99313 10.1911 4.47074 10.3684 3.93333 10.3684C3.39593 10.3684 2.87354 10.1911 2.44715 9.86402C2.02076 9.53691 1.7142 9.07827 1.575 8.55921H0.625C0.45924 8.55921 0.300268 8.49336 0.183058 8.37615C0.0658479 8.25894 0 8.09997 0 7.93421C0 7.76845 0.0658479 7.60948 0.183058 7.49227C0.300268 7.37506 0.45924 7.30921 0.625 7.30921H1.575C1.7142 6.79015 2.02076 6.33151 2.44715 6.0044C2.87354 5.6773 3.39593 5.5 3.93333 5.5C4.47074 5.5 4.99313 5.6773 5.41952 6.0044C5.8459 6.33151 6.15246 6.79015 6.29167 7.30921H16.0417C16.2074 7.30921 16.3664 7.37506 16.4836 7.49227C16.6008 7.60948 16.6667 7.76845 16.6667 7.93421Z" fill="#7C7C7C"/>
</svg>
