<svg width="22" height="23" viewBox="0 0 22 23" fill="none" xmlns="http://www.w3.org/2000/svg">
<path d="M18.5536 22.5447C18.4107 22.5447 18.2768 22.5226 18.1518 22.4783C18.0268 22.434 17.9107 22.358 17.8036 22.2501L12.3393 16.7858C12.2321 16.6787 12.1561 16.5626 12.1111 16.4376C12.0661 16.3126 12.0439 16.1787 12.0446 16.0358C12.0454 15.893 12.0679 15.759 12.1121 15.634C12.1564 15.509 12.2321 15.393 12.3393 15.2858L14.6161 13.009C14.7232 12.9019 14.8393 12.8262 14.9643 12.7819C15.0893 12.7376 15.2232 12.7151 15.3661 12.7144C15.5089 12.7137 15.6429 12.7362 15.7679 12.7819C15.8929 12.8276 16.0089 12.9033 16.1161 13.009L21.5804 18.4733C21.6875 18.5805 21.7636 18.6965 21.8086 18.8215C21.8536 18.9465 21.8757 19.0805 21.875 19.2233C21.8743 19.3662 21.8521 19.5001 21.8086 19.6251C21.765 19.7501 21.6889 19.8662 21.5804 19.9733L19.3036 22.2501C19.1964 22.3572 19.0804 22.4333 18.9554 22.4783C18.8304 22.5233 18.6964 22.5455 18.5536 22.5447ZM3.84821 22.5715C3.70536 22.5715 3.56714 22.5447 3.43357 22.4912C3.3 22.4376 3.17929 22.3572 3.07143 22.2501L0.821429 20.0001C0.714286 19.893 0.633929 19.7722 0.580357 19.638C0.526786 19.5037 0.5 19.3658 0.5 19.2244C0.5 19.083 0.526786 18.949 0.580357 18.8226C0.633929 18.6962 0.714286 18.5801 0.821429 18.4744L6.5 12.7958H8.77679L9.6875 11.8851L5.26786 7.46439H3.74107L0.5 4.22332L3.52679 1.19653L6.76786 4.4376V5.96439L11.1875 10.384L14.2946 7.27689L13.1429 6.1251L14.6429 4.6251H11.6161L10.8661 3.8751L14.6696 0.0715332L15.4196 0.821533V3.84832L16.9196 2.34832L20.7232 6.15189C21.0268 6.45546 21.2589 6.79939 21.4196 7.18368C21.5804 7.56796 21.6607 7.97403 21.6607 8.40189C21.6607 8.82975 21.5804 9.24046 21.4196 9.63403C21.2589 10.0276 21.0268 10.3758 20.7232 10.6787L18.4464 8.40189L16.9464 9.90189L15.8214 8.77689L10.2768 14.3215V16.5715L4.59821 22.2501C4.49107 22.3572 4.375 22.4376 4.25 22.4912C4.125 22.5447 3.99107 22.5715 3.84821 22.5715Z" fill="black"/>
</svg>
