<svg width="20" height="20" viewBox="0 0 20 20" fill="none" xmlns="http://www.w3.org/2000/svg">
<path d="M1.66602 9.99992C1.66602 6.85742 1.66602 5.28575 2.64268 4.30992C3.61935 3.33409 5.19018 3.33325 8.33268 3.33325H11.666C14.8085 3.33325 16.3802 3.33325 17.356 4.30992C18.3318 5.28659 18.3327 6.85742 18.3327 9.99992V11.6666C18.3327 14.8091 18.3327 16.3808 17.356 17.3566C16.3793 18.3324 14.8085 18.3333 11.666 18.3333H8.33268C5.19018 18.3333 3.61852 18.3333 2.64268 17.3566C1.66685 16.3799 1.66602 14.8091 1.66602 11.6666V9.99992Z" stroke="black" stroke-width="1.25"/>
<path d="M5.83203 3.33325V2.08325M14.1654 3.33325V2.08325M2.08203 7.49992H17.9154" stroke="black" stroke-width="1.25" stroke-linecap="round"/>
<path d="M14.5833 14.1667C14.5833 14.2772 14.5394 14.3832 14.4613 14.4613L14.7559 14.7559L14.4613 14.4613C14.3832 14.5394 14.2772 14.5833 14.1667 14.5833C14.0562 14.5833 13.9502 14.5394 13.872 14.4613C13.7939 14.3832 13.75 14.2772 13.75 14.1667C13.75 14.0562 13.7939 13.9502 13.872 13.872C13.9502 13.7939 14.0562 13.75 14.1667 13.75C14.2772 13.75 14.3832 13.7939 14.4613 13.872C14.5394 13.9502 14.5833 14.0562 14.5833 14.1667ZM6.12796 14.4613L6.42259 14.7559L6.12796 14.4613C6.04982 14.5394 5.94384 14.5833 5.83333 14.5833C5.72283 14.5833 5.61685 14.5394 5.53871 14.4613L5.24831 14.7517L5.53871 14.4613C5.46057 14.3832 5.41667 14.2772 5.41667 14.1667C5.41667 14.0562 5.46057 13.9502 5.53871 13.872C5.61685 13.7939 5.72283 13.75 5.83333 13.75C5.94384 13.75 6.04982 13.7939 6.12796 13.872C6.2061 13.9502 6.25 14.0562 6.25 14.1667C6.25 14.2772 6.2061 14.3832 6.12796 14.4613ZM14.5833 10.8333C14.5833 10.9438 14.5394 11.0498 14.4613 11.128C14.3832 11.2061 14.2772 11.25 14.1667 11.25C14.0562 11.25 13.9502 11.2061 13.872 11.128C13.7939 11.0498 13.75 10.9438 13.75 10.8333C13.75 10.7228 13.7939 10.6168 13.872 10.5387C13.9502 10.4606 14.0562 10.4167 14.1667 10.4167C14.2772 10.4167 14.3832 10.4606 14.4613 10.5387L14.7542 10.2458L14.4613 10.5387C14.5394 10.6168 14.5833 10.7228 14.5833 10.8333ZM10.4167 14.1667C10.4167 14.2772 10.3728 14.3832 10.2946 14.4613C10.2165 14.5394 10.1105 14.5833 10 14.5833C9.88949 14.5833 9.78351 14.5394 9.70537 14.4613C9.62723 14.3832 9.58333 14.2772 9.58333 14.1667C9.58333 14.0562 9.62723 13.9502 9.70537 13.872C9.78351 13.7939 9.88949 13.75 10 13.75C10.1105 13.75 10.2165 13.7939 10.2946 13.872C10.3728 13.9502 10.4167 14.0562 10.4167 14.1667ZM10.4167 10.8333C10.4167 10.9438 10.3728 11.0498 10.2946 11.128C10.2165 11.2061 10.1105 11.25 10 11.25C9.88949 11.25 9.78351 11.2061 9.70537 11.128C9.62723 11.0498 9.58333 10.9438 9.58333 10.8333C9.58333 10.7228 9.62723 10.6168 9.70537 10.5387C9.78351 10.4606 9.88949 10.4167 10 10.4167C10.1105 10.4167 10.2165 10.4606 10.2946 10.5387C10.3728 10.6168 10.4167 10.7228 10.4167 10.8333ZM6.25 10.8333C6.25 10.9438 6.2061 11.0498 6.12796 11.128C6.04982 11.2061 5.94384 11.25 5.83333 11.25C5.72283 11.25 5.61685 11.2061 5.53871 11.128C5.46057 11.0498 5.41667 10.9438 5.41667 10.8333C5.41667 10.7228 5.46057 10.6168 5.53871 10.5387C5.61685 10.4606 5.72283 10.4167 5.83333 10.4167C5.94384 10.4167 6.04982 10.4606 6.12796 10.5387C6.2061 10.6168 6.25 10.7228 6.25 10.8333Z" fill="white" stroke="black" stroke-width="0.833333"/>
</svg>
