<svg width="113" height="111" viewBox="0 0 113 111" fill="none" xmlns="http://www.w3.org/2000/svg">
<rect y="10" width="113" height="100" rx="10" fill="#F2F5FF"/>
<path d="M83.4145 72.1104H61.0352V107.62H83.4145V72.1104Z" fill="#B2B2B2"/>
<path d="M61.1215 72.1104H38.7422V107.62H61.1215V72.1104Z" fill="#D1D1D1"/>
<path d="M49.3971 29.0488L48.4431 48.1364L43.957 62.1336H52.0334L56.2282 50.0736L57.539 36.3678L49.3971 29.0488Z" fill="#F7EBE7"/>
<path d="M49.1728 95.7642L50.7968 103.331L45.3422 103.979L43.791 96.5288L49.1728 95.7642Z" fill="#FCC9A7"/>
<path d="M51.1236 102.647C50.9853 102.239 50.5483 102.093 50.2497 102.355C49.6671 102.872 48.6184 103.506 47.0673 103.353C45.4578 103.193 44.8534 102.246 44.6203 101.562C44.4965 101.205 44.1542 101.023 43.8484 101.176L34.0824 106.084C33.4925 106.383 33.0264 106.936 32.7934 107.628C32.5749 108.276 33.0119 108.975 33.6236 108.961L50.4974 108.495C51.1601 108.48 51.6698 107.825 51.6116 107.067L51.3348 103.353C51.3275 103.295 51.3203 103.229 51.2984 103.171L51.1236 102.647Z" fill="#1F252A"/>
<path d="M49.077 59.1769H36.4126C36.4126 59.1769 28.7004 58.7472 28.2416 65.0758C27.7828 71.4044 39.5514 89.5088 41.3939 99.1801L51.9828 98.3062L44.3579 72.0088L63.3217 72.118C64.7273 72.1253 66.1255 71.9214 67.4509 71.4626C71.1432 70.1809 76.7799 68.3457 73.7067 58.1792L49.077 59.1769Z" fill="#092330"/>
<path d="M58.8486 95.7935L61.4267 104.838L55.972 105.487L53.4668 96.5581L58.8486 95.7935Z" fill="#FCC9A7"/>
<path d="M61.7545 104.154C61.6161 103.746 61.1792 103.6 60.8806 103.863C60.298 104.38 59.2493 105.013 57.6981 104.86C56.0887 104.7 55.4842 103.753 55.2512 103.069C55.1274 102.712 54.7851 102.53 54.4792 102.683L44.7133 107.591C44.1234 107.89 43.6573 108.443 43.4243 109.135C43.2058 109.783 43.6428 110.482 44.2545 110.468L61.4195 110.002C62.0822 109.987 62.592 109.332 62.5337 108.574L61.9584 104.86C61.9511 104.802 61.9439 104.737 61.922 104.678L61.7545 104.154Z" fill="#1F252A"/>
<path d="M64.2093 21.5479C64.4933 21.8246 77.2014 25.0653 77.2014 25.0653L74.485 32.2824L60.5898 31.2337L64.2093 21.5479Z" fill="#F7EBE7"/>
<path d="M58.9658 23.2881C58.9658 23.2881 50.6855 26.3104 49.3965 29.0486C49.8407 32.9156 51.2026 36.637 53.4456 39.8195C56.1984 43.723 59.5994 50.4302 58.9731 59.1766H82.9109C82.9109 59.1766 81.6219 34.5688 74.5359 25.1233L58.9658 23.2881Z" fill="#F7EBE7"/>
<path d="M61.6809 27.1921C64.0332 26.7114 65.5479 24.4174 65.0673 22.0651L63.6617 15.1831L55.1484 16.9236L56.554 23.8057C57.0346 26.1579 59.3286 27.6727 61.6809 27.1921Z" fill="#FCC9A7"/>
<path d="M64.2435 17.5864C64.2435 17.5864 63.3478 23.1649 59.0074 23.4999C55.2059 23.7912 55.57 18.2928 55.57 18.2928L64.2435 17.5864Z" fill="#F4BE9A"/>
<path d="M59.3498 20.4411L60.0999 20.2663C63.865 19.3924 66.21 15.6346 65.3361 11.8768L64.3456 7.58735C63.4717 3.82226 59.7139 1.47727 55.9561 2.35118L55.206 2.52596C51.4409 3.39987 49.0959 7.15768 49.9698 10.9155L50.9603 15.2049C51.8342 18.97 55.592 21.315 59.3498 20.4411Z" fill="#FCC9A7"/>
<path d="M62.977 13.6611C62.8022 13.9597 62.6346 14.4112 62.5764 15.0957C62.5108 15.9624 62.0739 16.7853 61.3456 17.2659C59.2555 18.6496 57.6606 15.1467 54.5728 15.7657C54.5728 15.7657 53.3639 15.9478 53.1236 17.2951C52.8833 18.6351 51.201 16.2901 50.8296 14.6879C50.4582 13.0858 50.2689 22.6186 57.8719 21.8103C57.8719 21.8103 61.7098 21.6865 64.2951 17.7757C64.5791 17.3461 64.7466 16.8436 64.7611 16.3265C64.783 15.5618 64.6738 14.4039 63.9455 13.5737C63.6906 13.2678 63.1809 13.3115 62.977 13.6611Z" fill="#1C2226"/>
<path d="M62.9847 11.4979C62.9847 11.4979 59.7003 10.4128 60.2538 5.61355C60.2538 5.61355 52.0973 13.3331 46.0527 7.66724C46.0527 7.66724 48.7546 6.94627 49.8688 5.09649C51.9007 1.72466 57.7413 -2.92162 62.4167 2.45292C62.4167 2.45292 68.1044 1.57173 66.4731 10.3327L62.9847 11.4979Z" fill="#1C2226"/>
<path d="M62.9856 11.498C63.2987 12.838 64.6387 13.6755 65.9787 13.3696C67.326 13.0565 68.1562 11.7165 67.8503 10.3765C67.5372 9.03652 66.1972 8.19902 64.8572 8.50489C63.5099 8.81804 62.6724 10.158 62.9856 11.498Z" fill="#FCC9A7"/>
<path d="M58.8346 26.9224L62.352 26.9879L59.8905 32.0857L57.2324 27.1991L58.8346 26.9224Z" fill="#0C2C40"/>
<path d="M65.3676 21.7732L60.8379 27.0604L63.7873 30.4468L69.2128 22.9894C69.2128 22.9894 67.8219 20.7537 65.3676 21.7732Z" fill="#FFF7F3"/>
<path d="M58.835 26.9221L56.2278 29.8642L54.3926 25.2762C54.3926 25.2762 54.8733 23.2152 56.3735 23.6085L58.835 26.9221Z" fill="#FFF7F3"/>
<path d="M59.7965 30.4401C59.7965 30.4401 56.3955 39.3102 57.2403 51.8945L60.5903 54.9532L64.501 51.1881L60.2844 29.8647L59.7965 30.4401Z" fill="#0C2C40"/>
<path d="M66.1558 51.501L58.8733 53.8969L58.3926 58.1718L68.0493 55.2879L66.1558 51.501Z" fill="#FCC9A7"/>
<path d="M59.958 56.7226C59.958 59.2206 57.9334 61.2524 55.4282 61.2524C52.9303 61.2524 50.8984 59.2278 50.8984 56.7226C50.8984 54.2247 52.923 52.1929 55.4282 52.1929C57.9261 52.1929 59.958 54.2174 59.958 56.7226Z" fill="#FCC9A7"/>
<path d="M58.9654 59.1769H46.3082C46.3082 59.1769 38.596 58.7472 38.1372 65.0758C37.6784 71.4043 50.3136 90.674 52.1561 100.338L62.745 99.4641L54.2535 72.0015L73.2174 72.1107C74.6229 72.118 76.0211 71.9141 77.3466 71.4553C81.0388 70.1735 86.6755 68.3383 83.6023 58.1719L58.9654 59.1769Z" fill="#0C2C40"/>
<path d="M20.783 36.7979H42.6672C43.3881 36.7979 44.0072 37.3004 44.1601 38.0068L48.282 57.3347C48.4859 58.2814 47.7577 59.1772 46.7891 59.1772H24.5408C23.8126 59.1772 23.1863 58.6601 23.0479 57.9464L19.2901 38.6185C19.1008 37.6718 19.8217 36.7979 20.783 36.7979Z" fill="#B2B2B2"/>
<path d="M19.5233 36.7979H41.4001C42.1211 36.7979 42.7401 37.3004 42.893 38.0068L47.015 57.3347C47.2189 58.2814 46.4979 59.1772 45.522 59.1772H23.2811C22.5528 59.1772 21.9265 58.6601 21.7881 57.9464L18.0303 38.6185C17.841 37.6718 18.562 36.7979 19.5233 36.7979Z" fill="#D1D1D1"/>
<path d="M47.6839 57.5239H62.635C63.0938 57.5239 63.4579 57.8953 63.4579 58.3468C63.4579 58.8057 63.0865 59.1698 62.635 59.1698H47.3926L47.6839 57.5239Z" fill="#B2B2B2"/>
<path d="M33.0694 47.481C33.0694 48.7992 32.0062 49.8624 30.688 49.8624C29.3699 49.8624 28.3066 48.7919 28.3066 47.481C28.3066 46.1629 29.3772 45.0996 30.688 45.0996C32.0062 45.0996 33.0694 46.1629 33.0694 47.481Z" fill="white"/>
<path d="M71.9802 31.9404L79.9765 44.8524L60.8379 51.6834L63.4596 57.3492C63.4596 57.3492 79.8236 55.514 87.7324 49.4185C88.4607 48.8578 88.8248 47.9474 88.701 47.0371C88.3296 44.1241 86.742 37.0527 79.9765 27.0028C78.6001 24.9564 75.8618 24.3373 73.728 25.5754C71.5068 26.8571 70.7276 29.6973 71.9802 31.9404Z" fill="#F7EBE7"/>
<path d="M65.9277 49.8625L79.9758 44.8521L72.9481 33.4985" stroke="#EADDD8" stroke-width="0.7599" stroke-miterlimit="10" stroke-linecap="round" stroke-linejoin="round"/>
<path d="M56.4163 45.5874L52.957 36.4551" stroke="#EADDD8" stroke-width="0.7599" stroke-miterlimit="10" stroke-linecap="round" stroke-linejoin="round"/>
<path d="M66.1543 56.9633C66.1543 56.9633 76.9034 55.616 82.3216 52.5137" stroke="#EADDD8" stroke-width="0.7599" stroke-miterlimit="10" stroke-linecap="round" stroke-linejoin="round"/>
</svg>
