<svg width="32" height="14" viewBox="0 0 32 14" fill="none" xmlns="http://www.w3.org/2000/svg">
<path d="M12.1505 0.179298L7.96156 9.9987H5.22878L3.16739 2.16189C3.04241 1.68037 2.9338 1.50316 2.55349 1.29954C1.93185 0.967719 0.905275 0.657386 0.00292969 0.464333L0.0637942 0.179298H4.46354C5.02344 0.179298 5.52761 0.545632 5.65583 1.17993L6.74502 6.86258L9.43406 0.179298H12.1505ZM15.8448 0.179298L13.7073 9.9987H11.1218L13.2595 0.179298H15.8448ZM22.8581 6.7927C22.8689 4.2016 19.212 4.05779 19.2359 2.90009C19.2446 2.54812 19.5858 2.17344 20.3327 2.07765C20.7026 2.03061 21.7247 1.99316 22.8824 2.5173L23.3353 0.433754C22.7133 0.212702 21.9128 0 20.9171 0C18.3613 0 16.5635 1.33393 16.5491 3.24554C16.5323 4.65954 17.8332 5.4476 18.8116 5.91856C19.8193 6.39947 20.1572 6.70858 20.1526 7.1384C20.1453 7.79726 19.3477 8.08893 18.6062 8.09974C17.306 8.12 16.5522 7.7544 15.9509 7.47919L15.4816 9.63175C16.0865 9.90414 17.2014 10.1408 18.356 10.1528C21.0731 10.1528 22.8501 8.83412 22.8581 6.7927ZM29.607 9.99882H31.9974L29.909 0.179298H27.7035C27.2061 0.179298 26.7881 0.462982 26.6026 0.89907L22.7233 9.9987H25.4382L25.9767 8.53189H29.2936L29.607 9.99882ZM26.7212 6.51982L28.0825 2.8323L28.8645 6.51982H26.7212ZM19.1538 12.7017H18.1032V13.6624H19.2782V13.9512H17.7493V11.286H19.218V11.5748H18.1032V12.4169H19.1536L19.1538 12.7017ZM19.821 11.1438H20.175V13.9511H19.821V11.1438ZM21.0681 13.0575C21.0761 13.5282 21.378 13.7218 21.7359 13.7218C21.9897 13.7218 22.1465 13.6784 22.2755 13.6231L22.3397 13.8723C22.215 13.9275 21.9978 13.9947 21.6877 13.9947C21.0883 13.9947 20.7302 13.6033 20.7302 13.0259C20.7302 12.4487 21.0761 11.9978 21.6436 11.9978C22.2835 11.9978 22.4484 12.5436 22.4484 12.8955C22.4484 12.9666 22.4443 13.0179 22.4362 13.0576L21.0681 13.0575ZM22.1063 12.8084C22.1104 12.591 22.0138 12.2469 21.6153 12.2469C21.2532 12.2469 21.1002 12.5672 21.0719 12.8084H22.1063ZM24.3751 13.8839C24.2826 13.9275 24.0773 13.9948 23.8158 13.9948C23.2283 13.9948 22.846 13.6033 22.846 13.018C22.846 12.4288 23.2563 11.9979 23.8922 11.9979C24.1014 11.9979 24.2865 12.0491 24.3831 12.1007L24.3029 12.3656C24.218 12.3221 24.0853 12.2744 23.8922 12.2744C23.4454 12.2744 23.2042 12.6027 23.2042 12.9984C23.2042 13.4411 23.4939 13.714 23.8802 13.714C24.0814 13.714 24.2141 13.6666 24.3148 13.6231L24.3751 13.8839ZM25.3684 11.5786V12.0373H25.8754V12.3021H25.3684V13.3343C25.3684 13.5718 25.4369 13.706 25.634 13.706C25.7305 13.706 25.787 13.6983 25.8394 13.6822L25.8555 13.9474C25.787 13.971 25.6784 13.9947 25.5415 13.9947C25.3764 13.9947 25.2436 13.9393 25.1592 13.8486C25.0626 13.7416 25.0224 13.5718 25.0224 13.3463V12.3021H24.7204V12.0373H25.0224V11.6814L25.3684 11.5786ZM26.3699 12.6345C26.3699 12.409 26.3657 12.2154 26.3538 12.0373H26.6637L26.68 12.4168H26.6917C26.7805 12.16 26.9975 11.9978 27.2349 11.9978C27.2712 11.9978 27.2995 12.0018 27.3317 12.0056V12.334C27.2955 12.3259 27.2594 12.3259 27.2108 12.3259C26.9615 12.3259 26.7842 12.5078 26.7361 12.769C26.7278 12.8226 26.7237 12.8768 26.724 12.9311V13.9514H26.3699V12.6345ZM29.5082 12.9784C29.5082 13.6862 29.0051 13.9947 28.5384 13.9947C28.0151 13.9947 27.6048 13.615 27.6048 13.0102C27.6048 12.3734 28.0354 11.9979 28.5706 11.9979C29.1299 11.9979 29.5082 12.3969 29.5082 12.9784ZM27.9669 12.9984C27.9669 13.4175 28.2083 13.734 28.5544 13.734C28.8926 13.734 29.1459 13.4213 29.1459 12.9904C29.1459 12.6662 28.981 12.2587 28.5624 12.2587C28.1481 12.2587 27.9669 12.6386 27.9669 12.9984ZM30.0509 12.5554C30.0509 12.3539 30.0466 12.1956 30.0346 12.0375H30.3486L30.3687 12.3539H30.3767C30.4733 12.1758 30.6987 11.998 31.0206 11.998C31.2901 11.998 31.7087 12.1562 31.7087 12.8123V13.9514H31.3547V12.8481C31.3547 12.5398 31.2379 12.2825 30.904 12.2825C30.6745 12.2825 30.4933 12.4448 30.4292 12.6384C30.413 12.682 30.405 12.7412 30.405 12.8007V13.9514H30.0509V12.5554Z" fill="#1A1F71"/>
</svg>
